<svg xmlns="http://www.w3.org/2000/svg" width="38" height="37" viewBox="0 0 38 37" fill="none">    
<path d="M18.1231 35.2097C18.1231 34.2209 18.9083 33.4194 19.8769 33.4194H33.9077C34.2306 33.4194 34.4923 33.1522 34.4923 32.8226L34.4923 4.17742C34.4923 3.84783 34.2306 3.58065 33.9077 3.58065L19.8769 3.58065C18.9083 3.58065 18.1231 2.77909 18.1231 1.79032C18.1231 0.801558 18.9083 0 19.8769 0H33.9077C36.1678 0 38 1.8703 38 4.17742V32.8226C38 35.1297 36.1678 37 33.9077 37H19.8769C18.9083 37 18.1231 36.1984 18.1231 35.2097Z" fill="white"/>
<path d="M0 21.1621C0 22.4805 1.04696 23.5492 2.33846 23.5492H13.694C13.7476 24.3977 13.8147 25.2454 13.8954 26.0922L13.9647 26.8207C14.0775 28.0053 15.3098 28.7147 16.3612 28.2004C20.6357 26.1092 24.5054 23.2476 27.784 19.7532L27.8541 19.6786C28.4787 19.0129 28.4787 17.963 27.8541 17.2973L27.784 17.2227C24.5054 13.7283 20.6357 10.8667 16.3612 8.77555C15.3098 8.26119 14.0775 8.97061 13.9647 10.1552L13.8954 10.8837C13.8147 11.7305 13.7476 12.5783 13.694 13.4267L2.33846 13.4267C1.04697 13.4267 0 14.4955 0 15.8138V21.1621Z" fill="white"/>
</svg>